<?xml version="1.0" standalone="no"?><!DOCTYPE svg PUBLIC "-//W3C//DTD SVG 1.1//EN" "http://www.w3.org/Graphics/SVG/1.1/DTD/svg11.dtd"><svg t="1577242894203" class="icon" viewBox="0 0 1024 1024" version="1.1" xmlns="http://www.w3.org/2000/svg" p-id="2230" xmlns:xlink="http://www.w3.org/1999/xlink" width="1000" height="1000"><defs><style type="text/css"></style></defs><path d="M368.64 849.92H153.6c-51.2 0-97.28-40.96-97.28-87.04V245.76c0-46.08 46.08-87.04 97.28-87.04h716.8c51.2 0 92.16 40.96 92.16 87.04v107.52c0 25.6-20.48 46.08-40.96 46.08s-40.96-20.48-40.96-46.08v-102.4H153.6c-5.12 0-10.24 0-10.24 5.12v512h220.16c30.72 0 46.08 15.36 46.08 40.96s-15.36 40.96-40.96 40.96z" p-id="2231" fill="#f4ea2a"></path><path d="M860.16 855.04h-256c-51.2 0-92.16-40.96-92.16-92.16V593.92c0-51.2 40.96-97.28 92.16-97.28h256c51.2 0 92.16 40.96 92.16 97.28v168.96c5.12 51.2-35.84 92.16-92.16 92.16z m-256-271.36c-5.12 0-5.12 5.12-5.12 10.24v168.96c0 5.12 5.12 10.24 5.12 10.24h256c5.12 0 10.24-5.12 10.24-10.24V593.92c0-5.12-5.12-10.24-10.24-10.24h-256z" p-id="2232" fill="#f4ea2a"></path></svg>